<svg xmlns="http://www.w3.org/2000/svg" width="474.238" height="45.742" viewBox="0 0 474.238 45.742">
  <g id="그룹_412" data-name="그룹 412" transform="translate(-48.878 -31.506)">
    <text id="경북친환경농산물연합사업단" transform="translate(146.116 63.903)" font-size="29" font-family="MalgunGothic, Malgun Gothic"><tspan x="0" y="0">경북친환경농산물연합사업단</tspan></text>
    <g id="그룹_24468" data-name="그룹 24468" transform="translate(-2)">
      <g id="그룹_24275" data-name="그룹 24275" transform="translate(51.878 31.506)">
        <path id="패스_215" data-name="패스 215" d="M66.809,159.2c0-.042.008-.08.009-.12a17.776,17.776,0,1,0,0,30.781c0-.038-.011-.074-.011-.113Z" transform="translate(-40.155 -147.51)" fill="none" stroke="#fff" stroke-width="2"/>
        <path id="패스_216" data-name="패스 216" d="M90.784,188.691l6.671-13.34L79.54,157.436a2.5,2.5,0,0,0-4.257,1.647,17.771,17.771,0,0,1,0,30.782,2.494,2.494,0,0,0,2.488,2.385H92.985a2.461,2.461,0,0,1-2.2-3.56" transform="translate(-48.619 -147.51)" fill="none" stroke="#fff" stroke-width="2"/>
        <path id="패스_217" data-name="패스 217" d="M84.167,175.232a17.763,17.763,0,0,0-8.888-15.391c0,.04-.009.079-.009.12v30.548c0,.039.01.075.011.113a17.763,17.763,0,0,0,8.886-15.39" transform="translate(-48.616 -148.267)" fill="none" stroke="#fff" stroke-width="2"/>
        <path id="패스_218" data-name="패스 218" d="M132.853,188.69l-15.316-30.631a2.46,2.46,0,0,0-4.4,0l-8.646,17.291,12.634,12.634a2.5,2.5,0,0,1-1.767,4.266h15.3a2.46,2.46,0,0,0,2.2-3.56" transform="translate(-55.656 -147.51)" fill="none" stroke="#fff" stroke-width="2"/>
        <path id="패스_219" data-name="패스 219" d="M114.924,193.9,102.29,181.271l-6.67,13.34a2.46,2.46,0,0,0,2.2,3.56h15.336a2.5,2.5,0,0,0,1.767-4.266" transform="translate(-53.456 -153.43)" fill="none" stroke="#fff" stroke-width="2"/>
        <path id="패스_220" data-name="패스 220" d="M46.019,150.076l4.579,4.579a.53.53,0,0,0,.9-.375v-9.157a.53.53,0,0,0-.9-.375l-4.579,4.579a.529.529,0,0,0,0,.749" transform="translate(-41.53 -144.593)" fill="#fff"/>
      </g>
      <g id="그룹_24274" data-name="그룹 24274" transform="translate(51.878 31.506)">
        <path id="패스_215-2" data-name="패스 215" d="M66.809,159.2c0-.042.008-.08.009-.12a17.776,17.776,0,1,0,0,30.781c0-.038-.011-.074-.011-.113Z" transform="translate(-40.155 -147.51)" fill="#e33d2d"/>
        <path id="패스_216-2" data-name="패스 216" d="M90.784,188.691l6.671-13.34L79.54,157.436a2.5,2.5,0,0,0-4.257,1.647,17.771,17.771,0,0,1,0,30.782,2.494,2.494,0,0,0,2.488,2.385H92.985a2.461,2.461,0,0,1-2.2-3.56" transform="translate(-48.619 -147.51)" fill="#ffab22"/>
        <path id="패스_217-2" data-name="패스 217" d="M84.167,175.232a17.763,17.763,0,0,0-8.888-15.391c0,.04-.009.079-.009.12v30.548c0,.039.01.075.011.113a17.763,17.763,0,0,0,8.886-15.39" transform="translate(-48.616 -148.267)" fill="#f27d2a"/>
        <path id="패스_218-2" data-name="패스 218" d="M132.853,188.69l-15.316-30.631a2.46,2.46,0,0,0-4.4,0l-8.646,17.291,12.634,12.634a2.5,2.5,0,0,1-1.767,4.266h15.3a2.46,2.46,0,0,0,2.2-3.56" transform="translate(-55.656 -147.51)" fill="#80549a"/>
        <path id="패스_219-2" data-name="패스 219" d="M114.924,193.9,102.29,181.271l-6.67,13.34a2.46,2.46,0,0,0,2.2,3.56h15.336a2.5,2.5,0,0,0,1.767-4.266" transform="translate(-53.456 -153.43)" fill="#987155"/>
        <path id="패스_220-2" data-name="패스 220" d="M46.019,150.076l4.579,4.579a.53.53,0,0,0,.9-.375v-9.157a.53.53,0,0,0-.9-.375l-4.579,4.579a.529.529,0,0,0,0,.749" transform="translate(-41.53 -144.593)" fill="#91b508"/>
      </g>
    </g>
  </g>
</svg>
