<svg xmlns="http://www.w3.org/2000/svg" width="472.238" height="43.649" viewBox="0 0 472.238 43.649">
  <g id="그룹_412" data-name="그룹 412" transform="translate(-50.878 -31.506)">
    <text id="경북친환경농산물연합사업단" transform="translate(146.116 63.903)" fill="#fff" font-size="29" font-family="MalgunGothic, Malgun Gothic"><tspan x="0" y="0">경북친환경농산물연합사업단</tspan></text>
    <g id="그룹_24275" data-name="그룹 24275" transform="translate(51.878 31.506)">
      <path id="패스_215" data-name="패스 215" d="M65.563,159.087c0-.04.007-.076.009-.114a16.944,16.944,0,1,0,0,29.341c0-.036-.011-.071-.011-.108Z" transform="translate(-40.155 -147.94)" fill="none" stroke="#fff" stroke-width="2"/>
      <path id="패스_216" data-name="패스 216" d="M90.059,187.194l6.359-12.716L79.341,157.4a2.379,2.379,0,0,0-4.058,1.57,16.94,16.94,0,0,1,0,29.342,2.377,2.377,0,0,0,2.372,2.273h14.5a2.346,2.346,0,0,1-2.1-3.393" transform="translate(-49.866 -147.94)" fill="none" stroke="#fff" stroke-width="2"/>
      <path id="패스_217" data-name="패스 217" d="M83.751,174.512a16.932,16.932,0,0,0-8.472-14.671c0,.038-.009.075-.009.114v29.119c0,.037.009.072.011.108a16.932,16.932,0,0,0,8.47-14.67" transform="translate(-49.862 -148.808)" fill="none" stroke="#fff" stroke-width="2"/>
      <path id="패스_218" data-name="패스 218" d="M131.527,187.194l-14.6-29.2a2.345,2.345,0,0,0-4.2,0l-8.241,16.482,12.043,12.043a2.382,2.382,0,0,1-1.684,4.066h14.58a2.345,2.345,0,0,0,2.1-3.393" transform="translate(-57.941 -147.939)" fill="none" stroke="#fff" stroke-width="2"/>
      <path id="패스_219" data-name="패스 219" d="M114.009,193.314l-12.043-12.043-6.358,12.716a2.345,2.345,0,0,0,2.1,3.393h14.619a2.382,2.382,0,0,0,1.684-4.066" transform="translate(-55.416 -154.732)" fill="none" stroke="#fff" stroke-width="2"/>
      <path id="패스_220" data-name="패스 220" d="M46.011,149.82l4.364,4.364a.5.5,0,0,0,.862-.357V145.1a.5.5,0,0,0-.862-.357l-4.364,4.364a.5.5,0,0,0,0,.714" transform="translate(-41.733 -144.593)" fill="#fff"/>
    </g>
  </g>
</svg>
