<svg width="30" height="30" viewBox="0 0 30 30" fill="none" xmlns="http://www.w3.org/2000/svg">
<g clip-path="url(#clip0_2_12)">
<path d="M3.261 27.059C3.11082 27.0574 2.96399 27.0143 2.83671 26.9346C2.70943 26.8548 2.60663 26.7415 2.53963 26.6071C2.47262 26.4727 2.44402 26.3224 2.45696 26.1727C2.46991 26.0231 2.52391 25.8799 2.613 25.759L4.813 22.813L2.757 21.153C2.63979 21.0586 2.55099 20.9336 2.50045 20.7919C2.44991 20.6502 2.4396 20.4972 2.47066 20.3499C2.50173 20.2027 2.57295 20.0669 2.67644 19.9577C2.77993 19.8484 2.91165 19.77 3.057 19.731L10.152 17.831L3.125 16.553C2.93748 16.5191 2.76782 16.4204 2.64557 16.2742C2.52332 16.128 2.45623 15.9436 2.456 15.753V10.036C2.45598 9.85721 2.51468 9.68335 2.62308 9.54116C2.73148 9.39898 2.88358 9.29633 3.056 9.249L26.101 3.073C26.1718 3.05389 26.2447 3.04414 26.318 3.044C26.4681 3.04583 26.6148 3.08902 26.7419 3.16883C26.8691 3.24864 26.9717 3.36198 27.0386 3.49636C27.1055 3.63075 27.134 3.78099 27.121 3.93054C27.108 4.08009 27.054 4.22315 26.965 4.344L24.765 7.289L26.825 8.945C26.9422 9.03937 27.031 9.16436 27.0816 9.3061C27.1321 9.44784 27.1424 9.60081 27.1113 9.74805C27.0803 9.8953 27.0091 10.0311 26.9056 10.1403C26.8021 10.2496 26.6703 10.328 26.525 10.367L19.511 12.247L26.459 13.553C26.6457 13.588 26.8143 13.687 26.9357 13.8331C27.0572 13.9792 27.1237 14.1631 27.124 14.353V20.071C27.1238 20.2509 27.0642 20.4257 26.9544 20.5682C26.8447 20.7107 26.6909 20.8129 26.517 20.859L3.478 27.03C3.40725 27.0491 3.33429 27.0589 3.261 27.059ZM7.061 22.525L5.335 24.839L22.842 20.147L13.907 18.519L5.036 20.895L7.061 22.525ZM25.489 18.97V15.031L4.089 11.022V15.068L25.489 18.97ZM15.792 11.553L24.541 9.209L22.516 7.579L24.245 5.262L6.957 9.895L15.792 11.553Z" fill="black"/>
<path d="M5.239 22.756L2.18 20.294L11.574 17.777L2.769 16.171V9.651L27.581 3L24.339 7.348L27.401 9.809L18.101 12.301L26.811 13.933V20.456L26.437 20.556L2 27.103L5.239 22.756ZM6.631 22.58L4.546 25.375L24.266 20.09L13.894 18.2L4.363 20.756L6.631 22.58ZM25.803 19.345V14.772L3.779 10.646V15.329L25.803 19.345ZM15.803 11.873L25.216 9.352L22.946 7.525L25.033 4.725L5.549 9.949L15.803 11.873Z" fill="black"/>
</g>
<defs>
<clipPath id="clip0_2_12">
<rect width="25.581" height="24.103" fill="white" transform="translate(2 3)"/>
</clipPath>
</defs>
</svg>
