<svg xmlns="http://www.w3.org/2000/svg" width="35.203" height="35.196">
  <path fill="#fff" d="M17.605 8.574a9.024 9.024 0 1 0 9.023 9.024 9.009 9.009 0 0 0-9.023-9.024Zm0 14.891a5.867 5.867 0 1 1 5.866-5.867 5.877 5.877 0 0 1-5.866 5.864Zm11.5-15.26a2.1 2.1 0 1 1-2.1-2.1 2.1 2.1 0 0 1 2.1 2.1Zm5.976 2.136c-.136-2.819-.776-5.317-2.845-7.379S27.681.262 24.862.119c-2.906-.165-11.615-.165-14.521 0C7.53.253 5.032.897 2.967 2.954S.265 7.514.123 10.333c-.165 2.906-.165 11.616 0 14.522.134 2.819.782 5.317 2.843 7.374s4.555 2.7 7.374 2.843c2.906.165 11.615.165 14.521 0 2.819-.134 5.317-.778 7.374-2.843s2.7-4.555 2.843-7.375c.165-2.906.165-11.608 0-14.514Zm-3.756 17.632a5.939 5.939 0 0 1-3.346 3.346c-2.317.919-7.814.707-10.374.707s-8.065.2-10.374-.707a5.939 5.939 0 0 1-3.346-3.346c-.919-2.317-.707-7.814-.707-10.375s-.2-8.066.707-10.375a5.939 5.939 0 0 1 3.346-3.346c2.316-.915 7.814-.706 10.374-.706s8.065-.2 10.374.707a5.939 5.939 0 0 1 3.346 3.345c.919 2.317.707 7.814.707 10.375s.212 8.064-.707 10.375Z" data-name="Icon awesome-instagram"/>
</svg>