<svg xmlns="http://www.w3.org/2000/svg" width="35.203" height="35.196" viewBox="0 0 35.203 35.196">
  <path id="Icon_awesome-instagram" data-name="Icon awesome-instagram" d="M17.6,10.812a9.024,9.024,0,1,0,9.023,9.024A9.009,9.009,0,0,0,17.6,10.812Zm0,14.891a5.867,5.867,0,1,1,5.866-5.867A5.877,5.877,0,0,1,17.6,25.7Zm11.5-15.26a2.1,2.1,0,1,1-2.1-2.1A2.1,2.1,0,0,1,29.1,10.443Zm5.976,2.136C34.94,9.76,34.3,7.262,32.231,5.2s-4.555-2.7-7.374-2.843c-2.906-.165-11.615-.165-14.521,0-2.811.134-5.309.778-7.374,2.835S.26,9.752.118,12.571c-.165,2.906-.165,11.616,0,14.522C.252,29.912.9,32.41,2.961,34.467s4.555,2.7,7.374,2.843c2.906.165,11.615.165,14.521,0,2.819-.134,5.317-.778,7.374-2.843s2.7-4.555,2.843-7.375c.165-2.906.165-11.608,0-14.514ZM31.32,30.211a5.939,5.939,0,0,1-3.346,3.346c-2.317.919-7.814.707-10.374.707s-8.065.2-10.374-.707A5.939,5.939,0,0,1,3.88,30.211c-.919-2.317-.707-7.814-.707-10.375s-.2-8.066.707-10.375A5.939,5.939,0,0,1,7.226,6.115C9.542,5.2,15.04,5.409,17.6,5.409s8.065-.2,10.374.707A5.939,5.939,0,0,1,31.32,9.461c.919,2.317.707,7.814.707,10.375S32.239,27.9,31.32,30.211Z" transform="translate(0.005 -2.238)" fill="#fff"/>
</svg>
