<svg xmlns="http://www.w3.org/2000/svg" width="41.073" height="38.162" viewBox="0 0 41.073 38.162">
  <g id="그룹_14008" data-name="그룹 14008" transform="translate(0.45 0.45)">
    <path id="패스_11354" data-name="패스 11354" d="M830.206,660.292a1.383,1.383,0,1,0,1.383,1.384A1.383,1.383,0,0,0,830.206,660.292Z" transform="translate(-821.44 -646.543)" fill="#fff" stroke="rgba(0,0,0,0)" stroke-width="0.9"/>
    <path id="패스_11355" data-name="패스 11355" d="M843.67,660.15a1.49,1.49,0,1,0,1.49,1.491A1.489,1.489,0,0,0,843.67,660.15Z" transform="translate(-821.24 -646.545)" fill="#fff" stroke="rgba(0,0,0,0)" stroke-width="0.9"/>
    <path id="패스_11356" data-name="패스 11356" d="M856.348,646.746H826.922a5.373,5.373,0,0,0-5.373,5.374v17.463a5.374,5.374,0,0,0,5.373,5.374h10.393l3.535,8.328s.243.723.832.723h0c.59,0,.832-.723.832-.723l3.535-8.328h10.3a5.374,5.374,0,0,0,5.374-5.374V652.12A5.374,5.374,0,0,0,856.348,646.746ZM834.17,662.182c-.017,3.193-3.318,3.285-3.318,3.285a2.761,2.761,0,0,1-2-.846v.574h-2.4v-9.912c-.009,0-.011-.005,0-.006v.006c.149.023,2.4-.006,2.4-.006v3.791c.565-.963,2.2-.948,2.2-.948C834.616,658.452,834.17,662.182,834.17,662.182Zm4.231-3.757v6.789h-2.353v-6.721c0-.914-1.135-1.168-1.135-1.168v-2.37A3.254,3.254,0,0,1,838.4,658.425Zm5.577,7.047a3.644,3.644,0,1,1,3.944-3.63A3.8,3.8,0,0,1,843.979,665.472Zm12.89,0a3.355,3.355,0,0,1-3.47,3.447h-1.066v-2.234h.643s1.473.136,1.455-2.131c0,0-.287.919-2.352.919a3.1,3.1,0,0,1-2.928-3.068v-1.084a3.345,3.345,0,0,1,3.283-3.2,2.4,2.4,0,0,1,2.048.914v-.728h2.387Z" transform="translate(-821.549 -646.746)" fill="#fff" stroke="rgba(0,0,0,0)" stroke-width="0.9"/>
    <path id="패스_11357" data-name="패스 11357" d="M852.684,660.183a1.456,1.456,0,1,0,1.455,1.458A1.457,1.457,0,0,0,852.684,660.183Z" transform="translate(-821.104 -646.544)" fill="#fff" stroke="rgba(0,0,0,0)" stroke-width="0.9"/>
  </g>
</svg>
