<svg xmlns="http://www.w3.org/2000/svg" width="41.073" height="38.162">
  <g fill="#fff" stroke="rgba(0,0,0,0)" stroke-width=".9">
    <path d="M9.216 14.199a1.383 1.383 0 1 0 1.383 1.384 1.383 1.383 0 0 0-1.383-1.384Z"/>
    <path d="M22.88 14.055a1.49 1.49 0 1 0 1.49 1.491 1.489 1.489 0 0 0-1.49-1.491Z"/>
    <path d="M35.249.45H5.823A5.373 5.373 0 0 0 .45 5.824v17.463a5.374 5.374 0 0 0 5.373 5.374h10.393l3.535 8.328s.243.723.832.723c.59 0 .832-.723.832-.723l3.535-8.328h10.3a5.374 5.374 0 0 0 5.374-5.374V5.824A5.374 5.374 0 0 0 35.249.45ZM13.071 15.886c-.017 3.193-3.318 3.285-3.318 3.285a2.761 2.761 0 0 1-2-.846v.574h-2.4V8.987c-.009 0-.011-.005 0-.006v.006c.149.023 2.4-.006 2.4-.006v3.791c.565-.963 2.2-.948 2.2-.948 3.564.332 3.118 4.062 3.118 4.062Zm4.231-3.757v6.789h-2.353v-6.721c0-.914-1.135-1.168-1.135-1.168v-2.37a3.254 3.254 0 0 1 3.487 3.47Zm5.577 7.047a3.644 3.644 0 1 1 3.944-3.63 3.8 3.8 0 0 1-3.943 3.63Zm12.89 0a3.355 3.355 0 0 1-3.47 3.447h-1.066v-2.234h.643s1.473.136 1.455-2.131c0 0-.287.919-2.352.919a3.1 3.1 0 0 1-2.928-3.068v-1.084a3.345 3.345 0 0 1 3.283-3.2 2.4 2.4 0 0 1 2.048.914v-.728h2.387Z"/>
    <path d="M32.03 14.089a1.456 1.456 0 1 0 1.455 1.458 1.457 1.457 0 0 0-1.455-1.458Z"/>
  </g>
</svg>