<svg id="comment-dots_9821512" xmlns="http://www.w3.org/2000/svg" width="21.004" height="21.004" viewBox="0 0 21.004 21.004">
  <path id="comment-dots_9821512-2" data-name="comment-dots_9821512" d="M10.5,0a10.5,10.5,0,0,0,0,21H21V10.5A10.514,10.514,0,0,0,10.5,0Zm8.752,19.254H10.5A8.752,8.752,0,1,1,19.254,10.5ZM11.815,10.5A1.313,1.313,0,1,1,10.5,9.189,1.313,1.313,0,0,1,11.815,10.5Zm4.376,0a1.313,1.313,0,1,1-1.313-1.313A1.313,1.313,0,0,1,16.191,10.5Zm-8.752,0A1.313,1.313,0,1,1,6.126,9.189,1.313,1.313,0,0,1,7.439,10.5Z"/>
</svg>
