<svg xmlns="http://www.w3.org/2000/svg" width="26.286" height="24.001" viewBox="0 0 26.286 24.001">
  <path id="Path" d="M297.909,431.473a1.438,1.438,0,0,1-.413-.045,1.078,1.078,0,0,1-.139-.045l-.111-.049-.067-.017-.056-.021-.109-.047a26.267,26.267,0,0,1-6.426-4.539,16.839,16.839,0,0,1-4.192-6.324,10.311,10.311,0,0,1-.382-4.483,7.752,7.752,0,0,1,1.908-4.292,5.662,5.662,0,0,1,4.377-2.138,8.139,8.139,0,0,1,5.479,2.38l.1.107.126-.135a7.527,7.527,0,0,1,5.229-2.346l.289-.006A6.058,6.058,0,0,1,308,411.6c2.135,2.294,2.455,6.281,1.531,8.809-1.512,4.317-4.884,7.762-10.61,10.841l-.171.079A2.065,2.065,0,0,1,297.909,431.473Z" transform="translate(-284.918 -408.473)" fill="none" stroke="#000" stroke-width="2"/>
</svg>
