<svg id="comment_3916603" xmlns="http://www.w3.org/2000/svg" width="21.005" height="21.025" viewBox="0 0 21.005 21.025">
  <path id="패스_18" data-name="패스 18" d="M21,9.84A10.513,10.513,0,1,0,10.517,21h6.111A4.38,4.38,0,0,0,21,16.625Zm-1.75,6.785a2.626,2.626,0,0,1-2.626,2.626H10.517a8.788,8.788,0,0,1-6.543-2.926A8.679,8.679,0,0,1,1.807,9.487,8.789,8.789,0,0,1,9.383,1.819a9.245,9.245,0,0,1,1.138-.072A8.683,8.683,0,0,1,16.1,3.76a8.788,8.788,0,0,1,3.151,6.163Z" transform="translate(0.001 0.024)"/>
  <path id="패스_19" data-name="패스 19" d="M7.875,8.75h3.5a.875.875,0,1,0,0-1.75h-3.5a.875.875,0,0,0,0,1.75Z" transform="translate(-0.873 -0.853)"/>
  <path id="패스_20" data-name="패스 20" d="M14.877,11h-7a.875.875,0,0,0,0,1.75h7a.875.875,0,0,0,0-1.75Z" transform="translate(-0.873 -1.352)"/>
  <path id="패스_21" data-name="패스 21" d="M14.877,15h-7a.875.875,0,0,0,0,1.75h7a.875.875,0,0,0,0-1.75Z" transform="translate(-0.873 -1.851)"/>
</svg>
